<svg height="480pt" viewBox="0 0 480 480.0008" width="480pt" xmlns="http://www.w3.org/2000/svg"><path d="m472 8v464h-32v-208l-32-32v-120.480469c0-21.917969 6.242188-42.878906 17.28125-60.878906 11.121094-17.917969 27.121094-32.878906 46.71875-42.640625zm0 0" fill="#f2f0ea"/><path d="m240 104c75.121094 0 136 60.878906 136 136s-60.878906 136-136 136-136-60.878906-136-136 60.878906-136 136-136zm48.480469 141.601562c10-10.402343 10-27.359374 0-37.761718-10.078125-10.480469-26.320313-10.480469-36.398438 0l-12.082031 12.5625-12.078125-12.5625c-10.082031-10.480469-26.320313-10.480469-36.402344 0-10 10.402344-10 27.359375 0 37.761718l12.160157 12.640626 36.320312 37.757812 36.320312-37.757812zm0 0" fill="#ffd961"/><path d="m288.480469 207.839844c10 10.402344 10 27.359375 0 37.761718l-12.160157 12.640626-36.320312 37.757812-36.320312-37.757812-12.160157-12.640626c-10-10.402343-10-27.359374 0-37.761718 10.082031-10.480469 26.320313-10.480469 36.402344 0l12.078125 12.5625 12.082031-12.5625c10.078125-10.480469 26.320313-10.480469 36.398438 0zm0 0" fill="#ef6a74"/><path d="m72 24c0-4.398438 1.761719-8.398438 4.71875-11.277344 2.882812-2.960937 6.882812-4.722656 11.28125-4.722656 8.800781 0 16 7.199219 16 16v112l-32 32v288c0 4.402344-1.757812 8.402344-4.71875 11.28125-2.878906 2.960938-6.878906 4.71875-11.28125 4.71875-8.800781 0-16-7.199219-16-16v-288l-32-32v-112c0-4.398438 1.761719-8.398438 4.71875-11.277344 2.882812-2.960937 6.882812-4.722656 11.28125-4.722656 8.800781 0 16 7.199219 16 16 0-8.800781 7.199219-16 16-16 4.402344 0 8.402344 1.761719 11.28125 4.722656 2.960938 2.878906 4.71875 6.878906 4.71875 11.277344zm0 0" fill="#f2f0ea"/><g fill="#292929"><path d="m384 240c0-79.398438-64.597656-144-144-144-79.398438 0-144 64.601562-144 144 0 79.402344 64.601562 144 144 144 79.402344 0 144-64.597656 144-144zm-272 0c0-70.574219 57.425781-128 128-128 70.578125 0 128 57.425781 128 128 0 70.578125-57.421875 128-128 128-70.574219 0-128-57.421875-128-128zm0 0"/><path d="m328.617188 203.074219 14.773437-6.144531c-8.75-21.089844-24.261719-39.449219-43.671875-51.695313l-8.535156 13.527344c16.632812 10.503906 29.929687 26.238281 37.433594 44.3125zm0 0"/><path d="m283.105469 136.625c-8.378907-3.527344-17.097657-5.992188-25.90625-7.328125l-2.398438 15.816406c7.503907 1.144531 14.9375 3.246094 22.09375 6.261719zm0 0"/><path d="m32 171.3125v284.6875c0 13.234375 10.769531 24 24 24 6.488281 0 12.527344-2.527344 16.863281-6.992188 4.601563-4.488281 7.136719-10.519531 7.136719-17.007812v-284.6875l29.65625-29.65625c1.503906-1.496094 2.34375-3.527344 2.34375-5.65625v-112c0-13.230469-10.769531-24-24-24-6.09375 0-11.75 2.304688-16.015625 6.28125-4.359375-4.015625-9.953125-6.28125-15.984375-6.28125-6.167969 0-11.742188 2.410156-16 6.242188-4.253906-3.832032-9.832031-6.242188-16-6.242188-6.488281 0-12.527344 2.527344-16.863281 6.992188-4.601563 4.488281-7.136719 10.519531-7.136719 17.007812v112c0 2.128906.839844 4.160156 2.34375 5.65625zm-16-147.3125c0-2.136719.816406-4.101562 2.449219-5.703125 1.445312-1.472656 3.414062-2.296875 5.550781-2.296875 4.410156 0 8 3.585938 8 8v96h16v-96c0-4.414062 3.59375-8 8-8 2.136719 0 4.105469.824219 5.695312 2.449219 1.488282 1.449219 2.304688 3.414062 2.304688 5.550781v96h16v-96c0-2.136719.816406-4.101562 2.449219-5.703125 1.445312-1.472656 3.414062-2.296875 5.550781-2.296875 4.410156 0 8 3.585938 8 8v108.6875l-29.65625 29.65625c-1.503906 1.496094-2.34375 3.527344-2.34375 5.65625v288c0 2.136719-.816406 4.105469-2.449219 5.703125-1.445312 1.472656-3.414062 2.296875-5.550781 2.296875-4.40625 0-8-3.582031-8-8v-288c0-2.128906-.839844-4.160156-2.34375-5.65625l-29.65625-29.65625zm0 0"/><path d="m480 8c0-2.773438-1.429688-5.34375-3.792969-6.808594-2.351562-1.460937-5.300781-1.574218-7.773437-.359375-20.511719 10.207031-37.785156 25.976563-49.976563 45.625-12.074219 19.6875-18.457031 42.183594-18.457031 65.0625v120.480469c0 2.128906.839844 4.160156 2.34375 5.65625l29.65625 29.65625v204.6875c0 4.425781 3.585938 8 8 8h32c4.417969 0 8-3.574219 8-8zm-16 456h-16v-200c0-2.128906-.839844-4.160156-2.34375-5.65625l-29.65625-29.65625v-117.167969c0-19.917969 5.570312-39.527343 16.082031-56.664062 8.222657-13.246094 19.117188-24.488281 31.917969-33.007813zm0 0"/><path d="m240 304c2.175781 0 4.257812-.878906 5.769531-2.457031l48.480469-50.398438c12.949219-13.472656 12.949219-35.382812 0-48.847656-6.402344-6.648437-14.914062-10.3125-23.96875-10.3125-9.058594 0-17.570312 3.65625-23.96875 10.3125l-6.3125 6.558594-6.3125-6.558594c-6.398438-6.648437-14.910156-10.3125-23.96875-10.3125-9.054688 0-17.566406 3.664063-23.964844 10.3125-12.953125 13.472656-12.953125 35.382813 0 48.847656l48.476563 50.398438c1.515625 1.578125 3.59375 2.457031 5.769531 2.457031zm-42.710938-90.605469c3.351563-3.496093 7.765626-5.410156 12.4375-5.410156 4.664063 0 9.082032 1.914063 12.433594 5.410156l12.082032 12.550781c3.015624 3.144532 8.511718 3.144532 11.527343 0l12.078125-12.550781c6.710938-6.984375 18.167969-6.976562 24.871094 0 7.074219 7.351563 7.074219 19.308594 0 26.664063l-42.71875 44.40625-42.710938-44.40625c-7.074218-7.355469-7.074218-19.3125 0-26.664063zm0 0"/><path d="m232 320h16v16h-16zm0 0"/><path d="m264 320h16v16h-16zm0 0"/><path d="m200 320h16v16h-16zm0 0"/></g></svg>